<svg xmlns="http://www.w3.org/2000/svg" xmlns:xlink="http://www.w3.org/1999/xlink" width="100" zoomAndPan="magnify" viewBox="0 0 75 74.999997" height="100" preserveAspectRatio="xMidYMid meet" version="1.0"><defs><clipPath id="050c00f960"><path d="M 2.625 2.625 L 72.375 2.625 L 72.375 72.375 L 2.625 72.375 Z M 2.625 2.625 " clip-rule="nonzero"/></clipPath></defs><g clip-path="url(#050c00f960)"><path fill="#e62a3b" d="M 2.625 37.5 C 2.625 18.238281 18.238281 2.625 37.5 2.625 C 56.761719 2.625 72.375 18.238281 72.375 37.5 C 72.375 56.761719 56.761719 72.375 37.5 72.375 C 18.238281 72.375 2.625 56.761719 2.625 37.5 " fill-opacity="1" fill-rule="nonzero"/></g><path fill="#ffffff" d="M 48.667969 44.300781 L 55.074219 44.300781 C 56.363281 44.300781 57.40625 43.257812 57.40625 41.96875 L 57.40625 25.070312 C 57.332031 24.136719 56.535156 23.410156 55.597656 23.410156 L 48.667969 23.410156 C 47.535156 23.410156 46.617188 24.328125 46.617188 25.457031 L 46.617188 42.253906 C 46.617188 43.382812 47.535156 44.300781 48.667969 44.300781 " fill-opacity="1" fill-rule="nonzero"/><path fill="#ffffff" d="M 18.90625 40.527344 C 18.902344 40.558594 18.898438 40.585938 18.890625 40.617188 C 18.820312 40.980469 18.574219 41.277344 18.367188 41.582031 C 17.5625 42.761719 17.269531 44.414062 18.054688 45.605469 C 19.046875 47.101562 21.152344 47.230469 22.949219 47.207031 C 25.285156 47.175781 27.621094 47.140625 29.960938 47.109375 C 30.257812 47.105469 30.59375 47.117188 30.792969 47.335938 C 31.054688 47.625 30.929688 48.078125 30.808594 48.449219 C 30.082031 50.648438 30.101562 53.042969 30.5 55.324219 C 30.726562 56.648438 31.09375 57.972656 31.816406 59.101562 C 32.539062 60.234375 33.660156 61.15625 34.980469 61.40625 C 35.5625 61.515625 36.171875 61.46875 36.738281 61.289062 C 37.328125 61.097656 37.769531 60.757812 38.203125 60.328125 C 38.347656 60.1875 38.527344 60.074219 38.648438 59.910156 C 38.804688 59.699219 38.855469 59.40625 38.902344 59.152344 C 39.023438 58.472656 39 57.773438 38.949219 57.085938 C 38.875 56.046875 38.738281 54.988281 38.925781 53.953125 C 39.136719 52.820312 39.734375 51.796875 40.328125 50.808594 C 41.347656 49.109375 42.394531 47.425781 43.460938 45.753906 C 43.832031 45.175781 44.234375 44.570312 44.847656 44.257812 C 45.011719 44.171875 45.195312 44.101562 45.292969 43.945312 C 45.367188 43.820312 45.371094 43.667969 45.371094 43.519531 C 45.371094 40.636719 45.371094 37.753906 45.371094 34.867188 C 45.371094 31.984375 45.347656 29.101562 45.371094 26.21875 C 45.371094 25.972656 45.394531 25.726562 45.136719 25.601562 C 44.941406 25.503906 44.722656 25.460938 44.523438 25.382812 C 43.925781 25.15625 43.308594 24.988281 42.6875 24.867188 C 41.417969 24.621094 40.121094 24.554688 38.832031 24.546875 C 38.304688 24.539062 37.773438 24.546875 37.242188 24.550781 C 33.742188 24.589844 30.242188 24.625 26.742188 24.664062 C 24.769531 24.6875 22.578125 24.796875 21.195312 26.207031 C 20.46875 26.941406 20.070312 27.988281 20.117188 29.023438 C 20.148438 29.6875 20.355469 30.363281 20.210938 31.011719 C 20.089844 31.566406 19.730469 32.03125 19.5 32.546875 C 19.199219 33.214844 19.125 33.984375 19.285156 34.699219 C 19.363281 35.050781 19.5 35.40625 19.449219 35.765625 C 19.394531 36.128906 19.15625 36.4375 18.976562 36.757812 C 18.566406 37.492188 18.449219 38.382812 18.652344 39.199219 C 18.757812 39.640625 18.960938 40.082031 18.90625 40.527344 " fill-opacity="1" fill-rule="nonzero"/></svg>