<svg xmlns="http://www.w3.org/2000/svg" xmlns:xlink="http://www.w3.org/1999/xlink" width="100" zoomAndPan="magnify" viewBox="0 0 75 74.999997" height="100" preserveAspectRatio="xMidYMid meet" version="1.0"><defs><clipPath id="870bfaa8ce"><path d="M 3.039062 3.039062 L 72 3.039062 L 72 72 L 3.039062 72 Z M 3.039062 3.039062 " clip-rule="nonzero"/></clipPath></defs><g clip-path="url(#870bfaa8ce)"><path fill="#7ed957" d="M 71.957031 37.496094 C 71.957031 56.53125 56.53125 71.957031 37.496094 71.957031 C 18.460938 71.957031 3.039062 56.53125 3.039062 37.496094 C 3.039062 18.460938 18.460938 3.039062 37.496094 3.039062 C 56.53125 3.039062 71.957031 18.460938 71.957031 37.496094 Z M 71.957031 37.496094 " fill-opacity="1" fill-rule="nonzero"/></g><path fill="#ffffff" d="M 59.261719 33.277344 C 59.261719 45.558594 41.8125 55.757812 38.15625 57.773438 C 37.746094 58.007812 37.234375 58.007812 36.820312 57.773438 C 33.167969 55.773438 15.71875 45.574219 15.71875 33.277344 C 15.71875 33.195312 15.71875 33.097656 15.71875 33.015625 C 15.71875 32.960938 15.71875 32.894531 15.71875 32.835938 C 15.71875 32.519531 15.730469 32.203125 15.746094 31.886719 C 16.1875 25.671875 20.875 20.777344 26.59375 20.777344 C 32.601562 20.777344 37.484375 26.179688 37.484375 32.835938 C 37.484375 26.179688 42.363281 20.777344 48.371094 20.777344 C 54.148438 20.777344 58.875 25.753906 59.234375 32.050781 C 59.246094 32.3125 59.261719 32.574219 59.261719 32.835938 L 59.261719 32.851562 C 59.261719 33.003906 59.261719 33.140625 59.261719 33.277344 Z M 59.261719 33.277344 " fill-opacity="1" fill-rule="nonzero"/></svg>